<svg xmlns="http://www.w3.org/2000/svg" viewBox="0 0 24 24" fill="currentColor"><path fill-rule="evenodd" d="M6.2 7.8C6 5.2 9 3.8 11 5.4C12.6 3.4 16.6 3.6 17.4 6.6C20.4 7 21.2 10.6 19.2 12.2C21 14.4 19.4 18.2 16.4 17.6C15.4 20.6 11 20.8 9.8 18.2C6.8 19.2 3.8 16.4 5.4 13.6C3 12 3.6 8.4 6.2 7.8ZM7.4 12.6C9.4 11 10.6 13.4 12.6 11.8C14 10.6 15.4 11 16.4 9.4L17.1 9.9C15.9 11.8 14.4 11.5 13.1 12.5C10.8 14.3 9.6 11.9 8 13.2ZM10.2 16.2C11.6 15.2 13.2 16.4 14.6 15.2L15.1 15.8C13.4 17.2 11.8 16 10.7 16.8Z"/></svg>
