<svg xmlns="http://www.w3.org/2000/svg" viewBox="0 0 24 24" fill="currentColor"><path fill-rule="evenodd" d="M6.2 7.8C6 5.2 9 3.8 11 5.4C12.6 3.4 16.6 3.6 17.4 6.6C20.4 7 21.2 10.6 19.2 12.2C21 14.4 19.4 18.2 16.4 17.6C15.4 20.6 11 20.8 9.8 18.2C6.8 19.2 3.8 16.4 5.4 13.6C3 12 3.6 8.4 6.2 7.8ZM8.4 9.2C10 8.6 11.4 9.6 11.6 11.2L10.8 11.4C10.6 10.2 9.6 9.6 8.6 10ZM13.2 8.8C14.8 8.2 16.2 9.4 16 11L15.2 10.9C15.3 9.8 14.4 9.2 13.4 9.6ZM9.6 14.4C11 13.4 13.2 13.6 14.4 15L13.8 15.6C12.8 14.6 11.2 14.4 10.1 15.1Z"/></svg>
