<svg xmlns="http://www.w3.org/2000/svg" viewBox="0 0 24 24" fill="currentColor"><path fill-rule="evenodd" d="M1.8 9.8C2.4 7.6 6.6 5.4 10.4 4.4C10.8 3.4 13.2 3.4 13.6 4.4C17.4 5.4 21.6 7.6 22.2 9.8ZM5.75 8a0.65 0.65 0 1 0 1.3 0a0.65 0.65 0 1 0 -1.3 0ZM8.55 6.6a0.65 0.65 0 1 0 1.3 0a0.65 0.65 0 1 0 -1.3 0ZM14.15 6.6a0.65 0.65 0 1 0 1.3 0a0.65 0.65 0 1 0 -1.3 0ZM16.95 8a0.65 0.65 0 1 0 1.3 0a0.65 0.65 0 1 0 -1.3 0ZM11.35 7.4a0.65 0.65 0 1 0 1.3 0a0.65 0.65 0 1 0 -1.3 0Z"/><path fill-rule="evenodd" d="M10.9 10.4L13.1 10.4L13.3 19.6L10.7 19.6Z"/><path fill-rule="evenodd" d="M9.4 12.4H14.6L13.8 13.6H10.2Z"/><path fill-rule="evenodd" d="M9.2 20.2a2.8 1.4 0 1 0 5.6 0a2.8 1.4 0 1 0 -5.6 0Z"/></svg>
